<svg id="layer" xmlns="http://www.w3.org/2000/svg" viewBox="0 0 91.45 16.71"><defs><style>.cls-1{fill:#a73439;}.cls-2{fill:#243746;}</style></defs><path class="cls-1" d="M12.83,4.8A4.12,4.12,0,1,1,8.71,8.91" transform="translate(-5.32 -1.59)"/><path class="cls-1" d="M5.32,18.3H21.8V1.84H5.32Zm8.24-4.12a4.12,4.12,0,1,1,4.11-4.11,4.11,4.11,0,0,1-4.11,4.11" transform="translate(-5.32 -1.59)"/><path class="cls-2" d="M33,10.66,29.51,6.9C29,6.27,28.33,5.56,27.85,5h0c0,.63.05,1.28.05,1.85v3.73H25.81V1.81h1.72l3,3.28C31,5.56,31.63,6.24,32,6.76h0C32,6.21,32,5.66,32,5.12V1.81h2.06v8.87H33Z" transform="translate(-5.32 -1.59)"/><path class="cls-2" d="M39.68,10.77c-2.09,0-3.79-1.22-3.79-3.34V1.81H38V7.28a1.69,1.69,0,0,0,3.38,0V1.81h2.09V7.43c0,2.11-1.71,3.34-3.81,3.34" transform="translate(-5.32 -1.59)"/><polygon class="cls-2" points="44.02 1.95 44.02 8.98 41.88 8.98 41.88 1.95 39.37 1.95 39.37 0.21 46.53 0.21 46.53 1.95 44.02 1.95"/><path class="cls-2" d="M58.05,10.57,55.7,7.13h-.56v3.44H53.08V1.79h3.2a2.68,2.68,0,0,1,2.83,2.65,2.43,2.43,0,0,1-1.34,2.2l2.79,3.92H58.05ZM56,3.52h-.84v2H56a1,1,0,0,0,1.1-1,1,1,0,0,0-1.1-1" transform="translate(-5.32 -1.59)"/><rect class="cls-2" x="56.09" y="0.21" width="2.13" height="8.78"/><polygon class="cls-2" points="64.22 1.95 64.22 8.98 62.08 8.98 62.08 1.95 59.57 1.95 59.57 0.21 66.73 0.21 66.73 1.95 64.22 1.95"/><rect class="cls-2" x="68.09" y="0.21" width="2.13" height="8.78"/><path class="cls-2" d="M82,10.79a4.6,4.6,0,1,1,4.71-4.61A4.59,4.59,0,0,1,82,10.79m0-7.31A2.61,2.61,0,0,0,79.4,6.2a2.56,2.56,0,1,0,5.12,0A2.63,2.63,0,0,0,82,3.48" transform="translate(-5.32 -1.59)"/><path class="cls-2" d="M95.39,10.66,92,6.9c-.57-.63-1.19-1.34-1.67-1.92h0c0,.63,0,1.28,0,1.85v3.73H88.24V1.81H90L93,5.1c.43.47,1.07,1.16,1.47,1.68l0,0c0-.53-.06-1.08-.06-1.63V1.82h2v8.87H95.39Z" transform="translate(-5.32 -1.59)"/><rect class="cls-2" x="20.76" y="10.91" width="0.27" height="5.47"/><rect class="cls-2" x="20.76" y="10.91" width="0.27" height="5.47"/><path class="cls-2" d="M26.39,18h-.34V12.48h.34ZM26.12,18h.21V12.54h-.21Z" transform="translate(-5.32 -1.59)"/><path class="cls-2" d="M26.39,18h-.34V12.48h.34ZM26.12,18h.21V12.54h-.21Z" transform="translate(-5.32 -1.59)"/><path class="cls-2" d="M33.34,18l-2.8-3.32c-.49-.58-1.06-1.27-1.42-1.74l0,0c0,.51,0,1.06,0,1.66V18h-.26V12.49h.2l2.76,3.3c.42.5.94,1.12,1.34,1.63v0c0-.56,0-1.07,0-1.61V12.48h.26V18h-.08Z" transform="translate(-5.32 -1.59)"/><path class="cls-2" d="M33.34,18l-2.8-3.32c-.49-.58-1.06-1.27-1.42-1.74l0,0c0,.51,0,1.06,0,1.66V18h-.26V12.49h.2l2.76,3.3c.42.5.94,1.12,1.34,1.63v0c0-.56,0-1.07,0-1.61V12.48h.26V18h-.08Z" transform="translate(-5.32 -1.59)"/><path class="cls-2" d="M33.45,18.06h-.13v0L30.5,14.72c-.5-.6-1-1.24-1.38-1.68,0,.5,0,1,0,1.6V18H28.8V12.49H29l0,0,2.77,3.26c.56.67,1,1.19,1.31,1.59V17.2c0-.47,0-.93,0-1.38V12.48h.33v5.58ZM33.36,18h0V12.52h-.2V15.8c0,.47,0,.91,0,1.39v.24l-.06,0h0c-.32-.42-.77-.95-1.34-1.63L29,12.54h-.16V18h.2V14.64c0-.59,0-1.14,0-1.66h0l.06,0v0c.34.44.9,1.11,1.42,1.74Z" transform="translate(-5.32 -1.59)"/><path class="cls-2" d="M33.45,18.06h-.13v0L30.5,14.72c-.5-.6-1-1.24-1.38-1.68,0,.5,0,1,0,1.6V18H28.8V12.49H29l0,0,2.77,3.26c.56.67,1,1.19,1.31,1.59V17.2c0-.47,0-.93,0-1.38V12.48h.33v5.58ZM33.36,18h0V12.52h-.2V15.8c0,.47,0,.91,0,1.39v.24l-.06,0h0c-.32-.42-.77-.95-1.34-1.63L29,12.54h-.16V18h.2V14.64c0-.59,0-1.14,0-1.66h0l.06,0v0c.34.44.9,1.11,1.42,1.74Z" transform="translate(-5.32 -1.59)"/><polygon class="cls-2" points="32.24 11.16 32.24 16.39 31.96 16.39 31.96 11.16 29.94 11.16 29.94 10.91 34.26 10.91 34.26 11.16 32.24 11.16"/><polygon class="cls-2" points="32.24 11.16 32.24 16.39 31.96 16.39 31.96 11.16 29.94 11.16 29.94 10.91 34.26 10.91 34.26 11.16 32.24 11.16"/><path class="cls-2" d="M37.59,18h-.33V12.78h-2v-.32h4.39v.32h-2ZM37.32,18h.21V12.72h2v-.18H35.29v.18h2Z" transform="translate(-5.32 -1.59)"/><path class="cls-2" d="M37.59,18h-.33V12.78h-2v-.32h4.39v.32h-2ZM37.32,18h.21V12.72h2v-.18H35.29v.18h2Z" transform="translate(-5.32 -1.59)"/><polygon class="cls-2" points="36.11 16.39 36.11 10.91 38.85 10.91 38.85 11.16 36.38 11.16 36.38 13.51 38.36 13.51 38.36 13.75 36.38 13.75 36.38 16.13 39.16 16.13 39.16 16.39 36.11 16.39"/><polygon class="cls-2" points="36.11 16.39 36.11 10.91 38.85 10.91 38.85 11.16 36.38 11.16 36.38 13.51 38.36 13.51 38.36 13.75 36.38 13.75 36.38 16.13 39.16 16.13 39.16 16.39 36.11 16.39"/><path class="cls-2" d="M44.51,18H41.4V12.48h2.81v.32H41.74v2.27h2v.3h-2v2.32h2.77Zm-3-.06h3v-.18H41.68V15.31h2v-.18h-2V12.72h2.47v-.18H41.48V18Z" transform="translate(-5.32 -1.59)"/><path class="cls-2" d="M44.51,18H41.4V12.48h2.81v.32H41.74v2.27h2v.3h-2v2.32h2.77Zm-3-.06h3v-.18H41.68V15.31h2v-.18h-2V12.72h2.47v-.18H41.48V18Z" transform="translate(-5.32 -1.59)"/><path class="cls-2" d="M49.66,18l-1.93-2.64H46.62V18h-.28V12.51h1.34a1.45,1.45,0,0,1,1.56,1.42,1.39,1.39,0,0,1-1.19,1.38L50,18Zm-2-5.23h-1V15.1H47.7A1.18,1.18,0,0,0,49,13.93a1.21,1.21,0,0,0-1.31-1.18" transform="translate(-5.32 -1.59)"/><path class="cls-2" d="M49.66,18l-1.93-2.64H46.62V18h-.28V12.51h1.34a1.45,1.45,0,0,1,1.56,1.42,1.39,1.39,0,0,1-1.19,1.38L50,18Zm-2-5.23h-1V15.1H47.7A1.18,1.18,0,0,0,49,13.93a1.21,1.21,0,0,0-1.31-1.18" transform="translate(-5.32 -1.59)"/><path class="cls-2" d="M50.08,18h-.43l-1.92-2.63H46.65V18h-.34V12.48h1.37a1.48,1.48,0,0,1,1.59,1.46,1.39,1.39,0,0,1-1.18,1.4ZM49.69,18H50l-2-2.67h0a1.35,1.35,0,0,0,1.16-1.36,1.41,1.41,0,0,0-1.52-1.39H46.36v5.41h.21V15.3h1.19Zm-2-2.82H46.59V12.72h1.08a1.21,1.21,0,1,1,0,2.41m-1.05-.06H47.7a1.14,1.14,0,0,0,1.23-1.13,1.17,1.17,0,0,0-1.26-1.14h-1Z" transform="translate(-5.32 -1.59)"/><path class="cls-2" d="M50.08,18h-.43l-1.92-2.63H46.65V18h-.34V12.48h1.37a1.48,1.48,0,0,1,1.59,1.46,1.39,1.39,0,0,1-1.18,1.4ZM49.69,18H50l-2-2.67h0a1.35,1.35,0,0,0,1.16-1.36,1.41,1.41,0,0,0-1.52-1.39H46.36v5.41h.21V15.3h1.19Zm-2-2.82H46.59V12.72h1.08a1.21,1.21,0,1,1,0,2.41m-1.05-.06H47.7a1.14,1.14,0,0,0,1.23-1.13,1.17,1.17,0,0,0-1.26-1.14h-1Z" transform="translate(-5.32 -1.59)"/><path class="cls-2" d="M56.13,18l-2.81-3.32c-.49-.58-1-1.27-1.42-1.74v0c0,.51,0,1.06,0,1.66V18h-.25V12.49h.19l2.76,3.3c.43.5.95,1.12,1.34,1.63l0,0c0-.56,0-1.07,0-1.61V12.48h.26V18h-.07Z" transform="translate(-5.32 -1.59)"/><path class="cls-2" d="M56.13,18l-2.81-3.32c-.49-.58-1-1.27-1.42-1.74v0c0,.51,0,1.06,0,1.66V18h-.25V12.49h.19l2.76,3.3c.43.5.95,1.12,1.34,1.63l0,0c0-.56,0-1.07,0-1.61V12.48h.26V18h-.07Z" transform="translate(-5.32 -1.59)"/><path class="cls-2" d="M56.23,18.06h-.12v0l-2.81-3.32c-.52-.61-1-1.24-1.39-1.68,0,.5,0,1,0,1.6V18h-.34V12.49h.25v0L54.6,15.8c.57.67,1,1.19,1.31,1.59v-.16c0-.47,0-.93,0-1.4V12.49h.33v5.57ZM56.14,18h0V12.52H56V15.8c0,.47,0,.91,0,1.39v.24l-.06,0h0c-.32-.42-.76-.95-1.34-1.63l-2.76-3.28h-.15V18h.2V14.64c0-.59,0-1.14,0-1.66h0l.06,0,0,0c.35.44.88,1.1,1.42,1.74Z" transform="translate(-5.32 -1.59)"/><path class="cls-2" d="M56.23,18.06h-.12v0l-2.81-3.32c-.52-.61-1-1.24-1.39-1.68,0,.5,0,1,0,1.6V18h-.34V12.49h.25v0L54.6,15.8c.57.67,1,1.19,1.31,1.59v-.16c0-.47,0-.93,0-1.4V12.49h.33v5.57ZM56.14,18h0V12.52H56V15.8c0,.47,0,.91,0,1.39v.24l-.06,0h0c-.32-.42-.76-.95-1.34-1.63l-2.76-3.28h-.15V18h.2V14.64c0-.59,0-1.14,0-1.66h0l.06,0,0,0c.35.44.88,1.1,1.42,1.74Z" transform="translate(-5.32 -1.59)"/><path class="cls-2" d="M62.38,18l-.66-1.68H59.19L58.54,18h-.29l2.14-5.55h.11L62.65,18Zm-1.56-4q-.18-.49-.36-1.05h0a9,9,0,0,1-.37,1L59.27,16h2.34Z" transform="translate(-5.32 -1.59)"/><path class="cls-2" d="M62.38,18l-.66-1.68H59.19L58.54,18h-.29l2.14-5.55h.11L62.65,18Zm-1.56-4q-.18-.49-.36-1.05h0a9,9,0,0,1-.37,1L59.27,16h2.34Z" transform="translate(-5.32 -1.59)"/><path class="cls-2" d="M62.71,18h-.36l-.66-1.68H59.21L58.55,18H58.2l0-.05,2.16-5.56h.15l0,0ZM62.39,18h.23L60.5,12.46h-.06L58.31,18h.21l.66-1.68h2.57Zm-.71-1.88H59.24v0l.81-2.09c.12-.3.24-.65.37-1h.06A8.8,8.8,0,0,0,60.85,14ZM59.33,16h2.25l-.77-2c-.13-.31-.23-.64-.34-1-.11.37-.23.69-.33,1Z" transform="translate(-5.32 -1.59)"/><path class="cls-2" d="M62.71,18h-.36l-.66-1.68H59.21L58.55,18H58.2l0-.05,2.16-5.56h.15l0,0ZM62.39,18h.23L60.5,12.46h-.06L58.31,18h.21l.66-1.68h2.57Zm-.71-1.88H59.24v0l.81-2.09c.12-.3.24-.65.37-1h.06A8.8,8.8,0,0,0,60.85,14ZM59.33,16h2.25l-.77-2c-.13-.31-.23-.64-.34-1-.11.37-.23.69-.33,1Z" transform="translate(-5.32 -1.59)"/><polygon class="cls-2" points="61.14 11.16 61.14 16.39 60.86 16.39 60.86 11.16 58.84 11.16 58.84 10.91 63.16 10.91 63.16 11.16 61.14 11.16"/><polygon class="cls-2" points="61.14 11.16 61.14 16.39 60.86 16.39 60.86 11.16 58.84 11.16 58.84 10.91 63.16 10.91 63.16 11.16 61.14 11.16"/><path class="cls-2" d="M66.49,18h-.33V12.78h-2v-.32h4.39v.32h-2ZM66.22,18h.21V12.72h2v-.18H64.19v.18h2V18Z" transform="translate(-5.32 -1.59)"/><path class="cls-2" d="M66.49,18h-.33V12.78h-2v-.32h4.39v.32h-2ZM66.22,18h.21V12.72h2v-.18H64.19v.18h2V18Z" transform="translate(-5.32 -1.59)"/><rect class="cls-2" x="65.1" y="10.91" width="0.27" height="5.47"/><rect class="cls-2" x="65.1" y="10.91" width="0.27" height="5.47"/><path class="cls-2" d="M70.73,18h-.34V12.48h.34ZM70.45,18h.22V12.54h-.22Z" transform="translate(-5.32 -1.59)"/><path class="cls-2" d="M70.73,18h-.34V12.48h.34ZM70.45,18h.22V12.54h-.22Z" transform="translate(-5.32 -1.59)"/><path class="cls-2" d="M75.76,18.06a2.82,2.82,0,1,1,2.82-2.81,2.78,2.78,0,0,1-2.82,2.81m0-5.38a2.56,2.56,0,1,0,2.53,2.56,2.51,2.51,0,0,0-2.53-2.56" transform="translate(-5.32 -1.59)"/><path class="cls-2" d="M75.76,18.06a2.82,2.82,0,1,1,2.82-2.81,2.78,2.78,0,0,1-2.82,2.81m0-5.38a2.56,2.56,0,1,0,2.53,2.56,2.51,2.51,0,0,0-2.53-2.56" transform="translate(-5.32 -1.59)"/><path class="cls-2" d="M75.76,18.09a2.85,2.85,0,1,1,2.85-2.85,2.79,2.79,0,0,1-2.85,2.85m0-5.64A2.77,2.77,0,0,0,73,15.24a2.8,2.8,0,1,0,2.81-2.79m0,5.39a2.59,2.59,0,0,1,0-5.18,2.59,2.59,0,0,1,0,5.18m0-5.13a2.53,2.53,0,1,0,2.5,2.53,2.47,2.47,0,0,0-2.5-2.53" transform="translate(-5.32 -1.59)"/><path class="cls-2" d="M75.76,18.09a2.85,2.85,0,1,1,2.85-2.85,2.79,2.79,0,0,1-2.85,2.85m0-5.64A2.77,2.77,0,0,0,73,15.24a2.8,2.8,0,1,0,2.81-2.79m0,5.39a2.59,2.59,0,0,1,0-5.18,2.59,2.59,0,0,1,0,5.18m0-5.13a2.53,2.53,0,1,0,2.5,2.53,2.47,2.47,0,0,0-2.5-2.53" transform="translate(-5.32 -1.59)"/><path class="cls-2" d="M85.22,18l-2.8-3.32c-.49-.58-1-1.27-1.42-1.74v0c0,.51,0,1.06,0,1.66V18h-.26V12.49h.2l2.76,3.3c.43.5,1,1.12,1.34,1.63l0,0c0-.56,0-1.07,0-1.61V12.48h.26V18h-.08Z" transform="translate(-5.32 -1.59)"/><path class="cls-2" d="M85.22,18l-2.8-3.32c-.49-.58-1-1.27-1.42-1.74v0c0,.51,0,1.06,0,1.66V18h-.26V12.49h.2l2.76,3.3c.43.5,1,1.12,1.34,1.63l0,0c0-.56,0-1.07,0-1.61V12.48h.26V18h-.08Z" transform="translate(-5.32 -1.59)"/><path class="cls-2" d="M85.33,18.06h-.12l0,0-2.8-3.32c-.49-.58-1-1.24-1.39-1.68,0,.5,0,1,0,1.6V18h-.34V12.49h.25v0L83.7,15.8c.56.66,1,1.17,1.31,1.59v0c0-.52,0-1,0-1.52V12.51h.33v5.55ZM85.24,18h0V12.52h-.2V15.8c0,.52,0,1,0,1.52v.11l-.06,0h0c-.32-.42-.76-.95-1.34-1.63l-2.76-3.28h-.15V18H81V14.64c0-.59,0-1.14,0-1.66h0l.06,0,0,0,1.41,1.74Z" transform="translate(-5.32 -1.59)"/><path class="cls-2" d="M85.33,18.06h-.12l0,0-2.8-3.32c-.49-.58-1-1.24-1.39-1.68,0,.5,0,1,0,1.6V18h-.34V12.49h.25v0L83.7,15.8c.56.66,1,1.17,1.31,1.59v0c0-.52,0-1,0-1.52V12.51h.33v5.55ZM85.24,18h0V12.52h-.2V15.8c0,.52,0,1,0,1.52v.11l-.06,0h0c-.32-.42-.76-.95-1.34-1.63l-2.76-3.28h-.15V18H81V14.64c0-.59,0-1.14,0-1.66h0l.06,0,0,0,1.41,1.74Z" transform="translate(-5.32 -1.59)"/><path class="cls-2" d="M91.46,18,90.8,16.3H88.27L87.62,18h-.29l2.15-5.55h.1L91.73,18Zm-1.54-4c-.12-.33-.25-.68-.37-1.05h0a9,9,0,0,1-.37,1L88.36,16h2.35Z" transform="translate(-5.32 -1.59)"/><path class="cls-2" d="M91.46,18,90.8,16.3H88.27L87.62,18h-.29l2.15-5.55h.1L91.73,18Zm-1.54-4c-.12-.33-.25-.68-.37-1.05h0a9,9,0,0,1-.37,1L88.36,16h2.35Z" transform="translate(-5.32 -1.59)"/><path class="cls-2" d="M91.81,18h-.38l-.64-1.67H88.3L87.65,18H87.3V18l2.17-5.56h.15v0ZM91.49,18h.23L89.6,12.46h-.06L87.4,18h.22l.65-1.68h2.58v0Zm-.73-1.88H88.32v0l.81-2.09c.12-.3.25-.64.37-1h.07A11,11,0,0,0,90,14ZM88.43,16h2.24l-.78-2c-.12-.31-.23-.64-.34-1-.12.37-.23.69-.33,1Z" transform="translate(-5.32 -1.59)"/><path class="cls-2" d="M91.81,18h-.38l-.64-1.67H88.3L87.65,18H87.3V18l2.17-5.56h.15v0ZM91.49,18h.23L89.6,12.46h-.06L87.4,18h.22l.65-1.68h2.58v0Zm-.73-1.88H88.32v0l.81-2.09c.12-.3.25-.64.37-1h.07A11,11,0,0,0,90,14ZM88.43,16h2.24l-.78-2c-.12-.31-.23-.64-.34-1-.12.37-.23.69-.33,1Z" transform="translate(-5.32 -1.59)"/><polygon class="cls-2" points="88.45 16.39 88.45 10.91 88.72 10.91 88.72 16.13 91.42 16.13 91.42 16.39 88.45 16.39"/><polygon class="cls-2" points="88.45 16.39 88.45 10.91 88.72 10.91 88.72 16.13 91.42 16.13 91.42 16.39 88.45 16.39"/><path class="cls-2" d="M96.78,18h-3V12.48h.34v5.23h2.7V18Zm-3-.06H96.7v-.18H94V12.54h-.21Z" transform="translate(-5.32 -1.59)"/><path class="cls-2" d="M96.78,18h-3V12.48h.34v5.23h2.7V18Zm-3-.06H96.7v-.18H94V12.54h-.21Z" transform="translate(-5.32 -1.59)"/></svg>