<?xml version="1.0" encoding="utf-8"?>
<!-- Generator: Adobe Illustrator 19.0.0, SVG Export Plug-In . SVG Version: 6.00 Build 0)  -->
<svg version="1.1" id="layer" xmlns="http://www.w3.org/2000/svg" xmlns:xlink="http://www.w3.org/1999/xlink" x="0px" y="0px"
	 viewBox="-153 -46 652 652" style="enable-background:new -153 -46 652 652;" xml:space="preserve">
<style type="text/css">
	.st0{fill:#A73439;}
	.st1{fill:#243746;}
</style>
<path class="st0" d="M-104.9,208.2c0-14.9,12.1-27,27-27c14.9,0,27,12.1,27,27c0,14.9-12.1,27-27,27
	C-92.8,235.2-104.9,223.2-104.9,208.2"/>
<path class="st0" d="M-131.9,369.7h108.1V261.7h-108.1V369.7z M-77.9,342.7c-14.9,0-27-12.1-27-27c0-14.9,12.1-27,27-27
	c14.9,0,27,12.1,27,27C-50.9,330.6-63,342.7-77.9,342.7"/>
<path class="st1" d="M49.4,319.6l-22.6-24.7c-3.7-4.1-7.8-8.8-10.9-12.6l-0.2,0.1c0.2,4.1,0.3,8.4,0.3,12.1V319H2.5v-57.5h11.3
	L33.7,283c2.8,3.1,7,7.6,9.6,11l0.2-0.1c-0.2-3.5-0.4-7.1-0.4-10.7v-21.7h13.5v58.2H49.4z"/>
<path class="st1" d="M93.5,320.3c-13.7,0-24.9-8-24.9-21.9v-36.9h14v35.9c0,6.9,4.4,10.8,11.1,10.8c6.6,0,11.1-4,11.1-10.8v-35.9
	h13.7v36.9C118.4,312.2,107.3,320.3,93.5,320.3"/>
<polygon class="st1" points="156.9,272.9 156.9,319 142.9,319 142.9,272.9 126.4,272.9 126.4,261.5 173.4,261.5 173.4,272.9 "/>
<path class="st1" d="M214,319l-15.4-22.6h-3.7V319h-13.5v-57.6h21c9.8,0,18.6,6.6,18.6,17.4c0,6.7-4,12.2-8.8,14.4l18.3,25.7H214z
	 M200.3,272.7h-5.5v12.9h5.5c3.6,0,7.2-2,7.2-6.4C207.6,274.9,204,272.7,200.3,272.7"/>
<rect x="236.1" y="261.5" class="st1" width="14" height="57.6"/>
<polygon class="st1" points="289.4,272.9 289.4,319 275.4,319 275.4,272.9 258.9,272.9 258.9,261.5 305.9,261.5 305.9,272.9 "/>
<rect x="314.8" y="261.5" class="st1" width="14" height="57.6"/>
<path class="st1" d="M370.9,320.4c-15.9,0-31-11.6-31-30.2c0-18.4,15.1-30.1,31-30.1c15.9,0,30.9,11.6,30.9,30.1
	C401.9,308.6,386.9,320.4,370.9,320.4 M370.9,272.5c-8.7,0-16.8,7-16.8,17.8c0,10.7,8.1,17.8,16.8,17.8c8.6,0,16.8-7,16.8-17.8
	C387.7,279.6,379.5,272.5,370.9,272.5"/>
<path class="st1" d="M459,319.6l-22.6-24.7c-3.7-4.1-7.8-8.8-10.9-12.6l-0.2,0.1c0.2,4.1,0.3,8.4,0.3,12.1V319h-13.5v-57.5h11.3
	l19.8,21.6c2.8,3.1,7,7.6,9.6,11l0.2-0.1c-0.2-3.5-0.4-7.1-0.4-10.7v-21.7h13.5v58.2H459z"/>
<rect x="4.3" y="331.7" class="st1" width="1.8" height="35.9"/>
<rect x="4.3" y="331.7" class="st1" width="1.8" height="35.9"/>
<path class="st1" d="M6.3,367.8H4.1v-36.3h2.2V367.8z M4.5,367.4h1.4v-35.5H4.5V367.4z"/>
<path class="st1" d="M6.3,367.8H4.1v-36.3h2.2V367.8z M4.5,367.4h1.4v-35.5H4.5V367.4z"/>
<path class="st1" d="M51.9,367.8L33.5,346c-3.2-3.8-6.9-8.3-9.3-11.4l-0.1,0.1c0.1,3.4,0.1,7,0.1,10.9v21.9h-1.7v-35.9h1.3
	l18.1,21.6c2.8,3.3,6.2,7.4,8.8,10.7l0.1-0.1c-0.1-3.7-0.1-7-0.1-10.6v-21.7h1.7v36.2H51.9z"/>
<path class="st1" d="M51.9,367.8L33.5,346c-3.2-3.8-6.9-8.3-9.3-11.4l-0.1,0.1c0.1,3.4,0.1,7,0.1,10.9v21.9h-1.7v-35.9h1.3
	l18.1,21.6c2.8,3.3,6.2,7.4,8.8,10.7l0.1-0.1c-0.1-3.7-0.1-7-0.1-10.6v-21.7h1.7v36.2H51.9z"/>
<path class="st1" d="M52.6,368.1h-0.8l-0.1-0.1l-18.4-21.8c-3.3-3.9-6.8-8.1-9.1-11c0.1,3.3,0.1,6.8,0.1,10.5v22.2h-2.2v-36.3h1.6
	l0.1,0.1L42,353.1c3.7,4.4,6.5,7.8,8.6,10.4l0-1c0-3.1-0.1-6.1-0.1-9.1v-21.9h2.2V368.1z M52,367.6h0.2v-35.8h-1.3v21.5
	c0,3.1,0,6,0.1,9.1l0,1.6l-0.4,0.2l-0.1-0.1c-2.1-2.7-5-6.2-8.8-10.7l-18.1-21.5h-1v35.5h1.3v-21.7c0-3.9,0-7.5-0.1-10.9l0-0.1
	l0.4-0.2l0.1,0.1c2.2,2.9,5.9,7.3,9.3,11.4L52,367.6z"/>
<path class="st1" d="M52.6,368.1h-0.8l-0.1-0.1l-18.4-21.8c-3.3-3.9-6.8-8.1-9.1-11c0.1,3.3,0.1,6.8,0.1,10.5v22.2h-2.2v-36.3h1.6
	l0.1,0.1L42,353.1c3.7,4.4,6.5,7.8,8.6,10.4l0-1c0-3.1-0.1-6.1-0.1-9.1v-21.9h2.2V368.1z M52,367.6h0.2v-35.8h-1.3v21.5
	c0,3.1,0,6,0.1,9.1l0,1.6l-0.4,0.2l-0.1-0.1c-2.1-2.7-5-6.2-8.8-10.7l-18.1-21.5h-1v35.5h1.3v-21.7c0-3.9,0-7.5-0.1-10.9l0-0.1
	l0.4-0.2l0.1,0.1c2.2,2.9,5.9,7.3,9.3,11.4L52,367.6z"/>
<polygon class="st1" points="79.6,333.3 79.6,367.6 77.8,367.6 77.8,333.3 64.5,333.3 64.5,331.7 92.9,331.7 92.9,333.3 "/>
<polygon class="st1" points="79.6,333.3 79.6,367.6 77.8,367.6 77.8,333.3 64.5,333.3 64.5,331.7 92.9,331.7 92.9,333.3 "/>
<path class="st1" d="M79.8,367.8h-2.2v-34.3H64.3v-2.1h28.8v2.1H79.8V367.8z M78,367.4h1.4v-34.3h13.3v-1.2h-28v1.2H78V367.4z"/>
<path class="st1" d="M79.8,367.8h-2.2v-34.3H64.3v-2.1h28.8v2.1H79.8V367.8z M78,367.4h1.4v-34.3h13.3v-1.2h-28v1.2H78V367.4z"/>
<polygon class="st1" points="105,367.6 105,331.7 123,331.7 123,333.3 106.8,333.3 106.8,348.7 119.8,348.7 119.8,350.3 
	106.8,350.3 106.8,365.9 125,365.9 125,367.6 "/>
<polygon class="st1" points="105,367.6 105,331.7 123,331.7 123,333.3 106.8,333.3 106.8,348.7 119.8,348.7 119.8,350.3 
	106.8,350.3 106.8,365.9 125,365.9 125,367.6 "/>
<path class="st1" d="M125.2,367.8h-20.4v-36.3h18.4v2.1H107v14.9h13v2h-13v15.2h18.2V367.8z M105.2,367.4h19.6v-1.2h-18.2v-16.1h13
	v-1.2h-13v-15.8h16.2v-1.2h-17.5V367.4z"/>
<path class="st1" d="M125.2,367.8h-20.4v-36.3h18.4v2.1H107v14.9h13v2h-13v15.2h18.2V367.8z M105.2,367.4h19.6v-1.2h-18.2v-16.1h13
	v-1.2h-13v-15.8h16.2v-1.2h-17.5V367.4z"/>
<path class="st1" d="M159,367.6l-12.7-17.3H139v17.3h-1.8v-35.9h8.8c6,0,10.2,4.1,10.2,9.3c0,4.6-3.1,8.2-7.8,9.1l12.9,17.5H159z
	 M145.8,333.3H139v15.4h7.1c4.7,0,8.3-3.1,8.3-7.7C154.4,336.5,150.7,333.3,145.8,333.3"/>
<path class="st1" d="M159,367.6l-12.7-17.3H139v17.3h-1.8v-35.9h8.8c6,0,10.2,4.1,10.2,9.3c0,4.6-3.1,8.2-7.8,9.1l12.9,17.5H159z
	 M145.8,333.3H139v15.4h7.1c4.7,0,8.3-3.1,8.3-7.7C154.4,336.5,150.7,333.3,145.8,333.3"/>
<path class="st1" d="M161.7,367.8h-2.7l-0.1-0.1l-12.6-17.2h-7.1v17.3h-2.2v-36.3h9c6,0,10.4,4,10.4,9.6c0,4.7-3,8.2-7.7,9.2
	L161.7,367.8z M159.2,367.4h1.7L148,349.9l0.3-0.1c4.6-0.8,7.6-4.3,7.6-8.9c0-5.3-4.2-9.1-10-9.1h-8.6v35.5h1.4v-17.3h7.7l0.1,0.1
	L159.2,367.4z M146.1,348.9h-7.3v-15.8h7.1c5,0,8.8,3.4,8.8,7.9C154.6,345.5,150.9,348.9,146.1,348.9 M139.2,348.5h6.9
	c4.7,0,8.1-3.1,8.1-7.4c0-4.3-3.5-7.5-8.3-7.5h-6.7V348.5z"/>
<path class="st1" d="M161.7,367.8h-2.7l-0.1-0.1l-12.6-17.2h-7.1v17.3h-2.2v-36.3h9c6,0,10.4,4,10.4,9.6c0,4.7-3,8.2-7.7,9.2
	L161.7,367.8z M159.2,367.4h1.7L148,349.9l0.3-0.1c4.6-0.8,7.6-4.3,7.6-8.9c0-5.3-4.2-9.1-10-9.1h-8.6v35.5h1.4v-17.3h7.7l0.1,0.1
	L159.2,367.4z M146.1,348.9h-7.3v-15.8h7.1c5,0,8.8,3.4,8.8,7.9C154.6,345.5,150.9,348.9,146.1,348.9 M139.2,348.5h6.9
	c4.7,0,8.1-3.1,8.1-7.4c0-4.3-3.5-7.5-8.3-7.5h-6.7V348.5z"/>
<path class="st1" d="M201.4,367.8L183,346c-3.2-3.8-6.9-8.3-9.3-11.4l-0.1,0.1c0.1,3.4,0.1,7,0.1,10.9v21.9h-1.7v-35.9h1.3
	l18.1,21.6c2.8,3.3,6.2,7.4,8.8,10.7l0.1-0.1c-0.1-3.7-0.1-7-0.1-10.6v-21.7h1.7v36.2H201.4z"/>
<path class="st1" d="M201.4,367.8L183,346c-3.2-3.8-6.9-8.3-9.3-11.4l-0.1,0.1c0.1,3.4,0.1,7,0.1,10.9v21.9h-1.7v-35.9h1.3
	l18.1,21.6c2.8,3.3,6.2,7.4,8.8,10.7l0.1-0.1c-0.1-3.7-0.1-7-0.1-10.6v-21.7h1.7v36.2H201.4z"/>
<path class="st1" d="M202.1,368.1h-0.8l-0.1-0.1l-18.4-21.8c-3.4-4-6.8-8.1-9.1-11c0.1,3.3,0.1,6.8,0.1,10.5v22.2h-2.2v-36.3h1.6
	l0.1,0.1l18.1,21.6c3.7,4.4,6.5,7.8,8.6,10.4l0-1c0-3.1-0.1-6.1-0.1-9.2v-21.9h2.2V368.1z M201.5,367.6h0.2v-35.8h-1.3v21.5
	c0,3.1,0,6,0.1,9.1l0,1.6l-0.4,0.2l-0.1-0.1c-2.1-2.7-5-6.2-8.8-10.7l-18.1-21.5h-1v35.5h1.3v-21.7c0-3.9,0-7.5-0.1-10.9v-0.1
	l0.4-0.2l0.1,0.1c2.3,2.9,5.8,7.2,9.3,11.4L201.5,367.6z"/>
<path class="st1" d="M202.1,368.1h-0.8l-0.1-0.1l-18.4-21.8c-3.4-4-6.8-8.1-9.1-11c0.1,3.3,0.1,6.8,0.1,10.5v22.2h-2.2v-36.3h1.6
	l0.1,0.1l18.1,21.6c3.7,4.4,6.5,7.8,8.6,10.4l0-1c0-3.1-0.1-6.1-0.1-9.2v-21.9h2.2V368.1z M201.5,367.6h0.2v-35.8h-1.3v21.5
	c0,3.1,0,6,0.1,9.1l0,1.6l-0.4,0.2l-0.1-0.1c-2.1-2.7-5-6.2-8.8-10.7l-18.1-21.5h-1v35.5h1.3v-21.7c0-3.9,0-7.5-0.1-10.9v-0.1
	l0.4-0.2l0.1,0.1c2.3,2.9,5.8,7.2,9.3,11.4L201.5,367.6z"/>
<path class="st1" d="M242.4,367.6l-4.3-11h-16.6l-4.3,11h-1.9l14.1-36.4h0.7l14.1,36.4H242.4z M232.2,341.3
	c-0.8-2.2-1.6-4.5-2.4-6.9h-0.1c-0.7,2.4-1.5,4.7-2.4,6.8l-5.3,13.7h15.4L232.2,341.3z"/>
<path class="st1" d="M242.4,367.6l-4.3-11h-16.6l-4.3,11h-1.9l14.1-36.4h0.7l14.1,36.4H242.4z M232.2,341.3
	c-0.8-2.2-1.6-4.5-2.4-6.9h-0.1c-0.7,2.4-1.5,4.7-2.4,6.8l-5.3,13.7h15.4L232.2,341.3z"/>
<path class="st1" d="M244.6,367.8h-2.4l-4.3-11h-16.3l-4.3,11H215l0.1-0.3l14.2-36.5h1l0.1,0.1L244.6,367.8z M242.5,367.4h1.5
	l-13.9-36h-0.4l-14,36h1.4l4.3-11h16.9L242.5,367.4z M237.8,355.1h-16l0.1-0.3l5.3-13.7c0.8-2,1.6-4.3,2.4-6.8l0-0.1h0.4l0,0.1
	c0.7,2.4,1.5,4.7,2.4,6.9L237.8,355.1z M222.4,354.7h14.8l-5.1-13.3c-0.8-2-1.5-4.2-2.2-6.4c-0.7,2.4-1.5,4.5-2.2,6.4L222.4,354.7z"
	/>
<path class="st1" d="M244.6,367.8h-2.4l-4.3-11h-16.3l-4.3,11H215l0.1-0.3l14.2-36.5h1l0.1,0.1L244.6,367.8z M242.5,367.4h1.5
	l-13.9-36h-0.4l-14,36h1.4l4.3-11h16.9L242.5,367.4z M237.8,355.1h-16l0.1-0.3l5.3-13.7c0.8-2,1.6-4.3,2.4-6.8l0-0.1h0.4l0,0.1
	c0.7,2.4,1.5,4.7,2.4,6.9L237.8,355.1z M222.4,354.7h14.8l-5.1-13.3c-0.8-2-1.5-4.2-2.2-6.4c-0.7,2.4-1.5,4.5-2.2,6.4L222.4,354.7z"
	/>
<polygon class="st1" points="269.2,333.3 269.2,367.6 267.4,367.6 267.4,333.3 254.1,333.3 254.1,331.7 282.5,331.7 282.5,333.3 "/>
<polygon class="st1" points="269.2,333.3 269.2,367.6 267.4,367.6 267.4,333.3 254.1,333.3 254.1,331.7 282.5,331.7 282.5,333.3 "/>
<path class="st1" d="M269.4,367.8h-2.2v-34.3h-13.3v-2.1h28.8v2.1h-13.3V367.8z M267.6,367.4h1.4v-34.3h13.3v-1.2h-28v1.2h13.3
	V367.4z"/>
<path class="st1" d="M269.4,367.8h-2.2v-34.3h-13.3v-2.1h28.8v2.1h-13.3V367.8z M267.6,367.4h1.4v-34.3h13.3v-1.2h-28v1.2h13.3
	V367.4z"/>
<rect x="295.2" y="331.7" class="st1" width="1.8" height="35.9"/>
<rect x="295.2" y="331.7" class="st1" width="1.8" height="35.9"/>
<path class="st1" d="M297.2,367.8H295v-36.3h2.2V367.8z M295.4,367.4h1.4v-35.5h-1.4V367.4z"/>
<path class="st1" d="M297.2,367.8H295v-36.3h2.2V367.8z M295.4,367.4h1.4v-35.5h-1.4V367.4z"/>
<path class="st1" d="M330.2,368.1c-10.4,0-18.6-7.9-18.6-18.4c0-10.6,8.2-18.5,18.6-18.5c10.4,0,18.5,7.9,18.5,18.5
	C348.7,360.2,340.5,368.1,330.2,368.1 M330.2,332.8c-9.3,0-16.7,7.2-16.7,16.8c0,9.6,7.4,16.8,16.7,16.8c9.3,0,16.6-7.2,16.6-16.8
	C346.8,340,339.5,332.8,330.2,332.8"/>
<path class="st1" d="M330.2,368.1c-10.4,0-18.6-7.9-18.6-18.4c0-10.6,8.2-18.5,18.6-18.5c10.4,0,18.5,7.9,18.5,18.5
	C348.7,360.2,340.5,368.1,330.2,368.1 M330.2,332.8c-9.3,0-16.7,7.2-16.7,16.8c0,9.6,7.4,16.8,16.7,16.8c9.3,0,16.6-7.2,16.6-16.8
	C346.8,340,339.5,332.8,330.2,332.8"/>
<path class="st1" d="M330.2,368.3c-10.5,0-18.8-8.2-18.8-18.7c0-10.5,8.2-18.7,18.8-18.7c10.5,0,18.7,8.2,18.7,18.7
	C348.9,360.3,340.8,368.3,330.2,368.3 M330.2,331.3c-10.3,0-18.4,8-18.4,18.3c0,10.4,7.9,18.2,18.4,18.2c10.4,0,18.3-7.9,18.3-18.2
	C348.5,339.2,340.6,331.3,330.2,331.3 M330.2,366.7c-9.5,0-16.9-7.5-16.9-17c0-9.6,7.4-17,16.9-17c9.6,0,16.9,7.3,16.9,17
	C347,359.3,339.8,366.7,330.2,366.7 M330.2,333c-9.4,0-16.5,7.1-16.5,16.6s7.1,16.6,16.5,16.6c9.4,0,16.4-7.1,16.4-16.6
	S339.6,333,330.2,333"/>
<path class="st1" d="M330.2,368.3c-10.5,0-18.8-8.2-18.8-18.7c0-10.5,8.2-18.7,18.8-18.7c10.5,0,18.7,8.2,18.7,18.7
	C348.9,360.3,340.8,368.3,330.2,368.3 M330.2,331.3c-10.3,0-18.4,8-18.4,18.3c0,10.4,7.9,18.2,18.4,18.2c10.4,0,18.3-7.9,18.3-18.2
	C348.5,339.2,340.6,331.3,330.2,331.3 M330.2,366.7c-9.5,0-16.9-7.5-16.9-17c0-9.6,7.4-17,16.9-17c9.6,0,16.9,7.3,16.9,17
	C347,359.3,339.8,366.7,330.2,366.7 M330.2,333c-9.4,0-16.5,7.1-16.5,16.6s7.1,16.6,16.5,16.6c9.4,0,16.4-7.1,16.4-16.6
	S339.6,333,330.2,333"/>
<path class="st1" d="M392.3,367.8L373.9,346c-3.2-3.8-6.9-8.3-9.3-11.4l-0.1,0.1c0.1,3.4,0.1,7,0.1,10.9v21.9h-1.7v-35.9h1.3
	l18.1,21.6c2.8,3.3,6.2,7.4,8.8,10.7l0.1-0.1c-0.1-3.7-0.1-7-0.1-10.6v-21.7h1.7v36.2H392.3z"/>
<path class="st1" d="M392.3,367.8L373.9,346c-3.2-3.8-6.9-8.3-9.3-11.4l-0.1,0.1c0.1,3.4,0.1,7,0.1,10.9v21.9h-1.7v-35.9h1.3
	l18.1,21.6c2.8,3.3,6.2,7.4,8.8,10.7l0.1-0.1c-0.1-3.7-0.1-7-0.1-10.6v-21.7h1.7v36.2H392.3z"/>
<path class="st1" d="M393,368.1h-0.8l-0.1-0.1l-18.4-21.8c-3.2-3.8-6.7-8.1-9.1-11c0.1,3.3,0.1,6.8,0.1,10.5v22.2h-2.2v-36.3h1.6
	l0.1,0.1l18.1,21.6c3.7,4.3,6.5,7.7,8.6,10.4l0-0.1c-0.1-3.4-0.1-6.7-0.1-10v-21.9h2.2V368.1z M392.4,367.6h0.2v-35.8h-1.3v21.5
	c0,3.4,0.1,6.6,0.1,10l0,0.7l-0.4,0.2l-0.1-0.1c-2.1-2.7-5-6.2-8.8-10.7L364,331.9h-1v35.5h1.3v-21.7c0-3.9,0-7.5-0.1-10.9l0-0.1
	l0.4-0.2l0.1,0.1c2.3,2.9,6,7.4,9.3,11.4L392.4,367.6z"/>
<path class="st1" d="M393,368.1h-0.8l-0.1-0.1l-18.4-21.8c-3.2-3.8-6.7-8.1-9.1-11c0.1,3.3,0.1,6.8,0.1,10.5v22.2h-2.2v-36.3h1.6
	l0.1,0.1l18.1,21.6c3.7,4.3,6.5,7.7,8.6,10.4l0-0.1c-0.1-3.4-0.1-6.7-0.1-10v-21.9h2.2V368.1z M392.4,367.6h0.2v-35.8h-1.3v21.5
	c0,3.4,0.1,6.6,0.1,10l0,0.7l-0.4,0.2l-0.1-0.1c-2.1-2.7-5-6.2-8.8-10.7L364,331.9h-1v35.5h1.3v-21.7c0-3.9,0-7.5-0.1-10.9l0-0.1
	l0.4-0.2l0.1,0.1c2.3,2.9,6,7.4,9.3,11.4L392.4,367.6z"/>
<path class="st1" d="M433.2,367.6l-4.3-11h-16.6l-4.3,11h-1.9l14.1-36.4h0.7l14.1,36.4H433.2z M423.1,341.3
	c-0.8-2.2-1.6-4.5-2.4-6.9h-0.1c-0.7,2.4-1.5,4.7-2.4,6.8l-5.3,13.7h15.4L423.1,341.3z"/>
<path class="st1" d="M433.2,367.6l-4.3-11h-16.6l-4.3,11h-1.9l14.1-36.4h0.7l14.1,36.4H433.2z M423.1,341.3
	c-0.8-2.2-1.6-4.5-2.4-6.9h-0.1c-0.7,2.4-1.5,4.7-2.4,6.8l-5.3,13.7h15.4L423.1,341.3z"/>
<path class="st1" d="M435.5,367.8h-2.4l-0.1-0.1l-4.2-10.9h-16.3l-4.3,11h-2.3l0.1-0.3l14.2-36.5h1l0.1,0.1L435.5,367.8z
	 M433.4,367.4h1.5l-13.9-36h-0.4l-14,36h1.4l4.3-11h16.9l0.1,0.1L433.4,367.4z M428.6,355.1h-16l0.1-0.3l5.3-13.7
	c0.8-2,1.6-4.2,2.4-6.8l0-0.1h0.4l0.1,0.1c0.7,2.4,1.5,4.7,2.4,6.9L428.6,355.1z M413.3,354.7H428l-5.1-13.3c-0.8-2-1.5-4.2-2.2-6.4
	c-0.8,2.4-1.5,4.5-2.2,6.4L413.3,354.7z"/>
<path class="st1" d="M435.5,367.8h-2.4l-0.1-0.1l-4.2-10.9h-16.3l-4.3,11h-2.3l0.1-0.3l14.2-36.5h1l0.1,0.1L435.5,367.8z
	 M433.4,367.4h1.5l-13.9-36h-0.4l-14,36h1.4l4.3-11h16.9l0.1,0.1L433.4,367.4z M428.6,355.1h-16l0.1-0.3l5.3-13.7
	c0.8-2,1.6-4.2,2.4-6.8l0-0.1h0.4l0.1,0.1c0.7,2.4,1.5,4.7,2.4,6.9L428.6,355.1z M413.3,354.7H428l-5.1-13.3c-0.8-2-1.5-4.2-2.2-6.4
	c-0.8,2.4-1.5,4.5-2.2,6.4L413.3,354.7z"/>
<polygon class="st1" points="448.4,367.6 448.4,331.7 450.2,331.7 450.2,365.9 467.9,365.9 467.9,367.6 "/>
<polygon class="st1" points="448.4,367.6 448.4,331.7 450.2,331.7 450.2,365.9 467.9,365.9 467.9,367.6 "/>
<path class="st1" d="M468.1,367.8h-19.9v-36.3h2.2v34.3h17.7V367.8z M448.6,367.4h19v-1.2H450v-34.3h-1.4V367.4z"/>
<path class="st1" d="M468.1,367.8h-19.9v-36.3h2.2v34.3h17.7V367.8z M448.6,367.4h19v-1.2H450v-34.3h-1.4V367.4z"/>
</svg>
