<!--?xml version="1.0" standalone="no"?--><svg xmlns="http://www.w3.org/2000/svg" width="300.000000pt" height="220.000000pt" viewBox="0 0 300.000000 220.000000" preserveAspectRatio="xMidYMid meet">
<metadata>
  <rdf:rdf xmlns:rdf="http://www.w3.org/1999/02/22-rdf-syntax-ns#" xmlns:rdfs="http://www.w3.org/2000/01/rdf-schema#" xmlns:dc="http://purl.org/dc/elements/1.1/">
    <rdf:description dc:title="weight loss men" dc:publisher="Hiox" dc:date="2015-04-11" dc:format="image/svg+xml" dc:language="en">
      <dc:creator>
        <rdf:bag>
          <rdf:li>svgimages.com</rdf:li>
        </rdf:bag>
      </dc:creator>
    </rdf:description>
  </rdf:rdf>
</metadata>
<g transform="translate(0.000000,220.000000) scale(0.100000,-0.100000)" fill="#222222" stroke="none">
<path d="M1922 2027 c-22 -24 -30 -67 -19 -102 4 -13 -1 -36 -13 -60 -30 -60
-27 -136 10 -209 35 -70 36 -79 10 -116 -29 -41 -36 -85 -16 -115 13 -20 16
-53 16 -174 0 -93 -5 -160 -12 -178 -7 -16 -12 -86 -13 -163 -1 -74 -4 -144
-6 -154 -3 -17 5 -22 61 -33 36 -8 76 -12 89 -11 26 3 43 28 19 28 -7 0 -30
14 -51 31 -27 22 -37 38 -37 60 0 35 55 209 81 259 11 19 19 46 19 60 0 14 11
60 25 103 14 43 25 98 25 123 0 24 4 52 9 62 4 9 16 31 25 49 23 45 20 107 -9
165 -14 27 -25 63 -25 78 0 22 -12 39 -50 72 -52 44 -60 61 -37 75 33 19 25
133 -11 161 -25 19 -66 14 -90 -11z" id="node1" class="node" style="position: relative;"></path>
<path d="M2257 2032 c-19 -21 -22 -74 -6 -103 8 -16 5 -30 -12 -67 -31 -64
-30 -126 4 -192 33 -64 34 -81 2 -128 -28 -42 -33 -103 -10 -122 21 -17 22
-301 1 -351 -9 -22 -15 -86 -17 -185 l-4 -151 73 -12 c67 -12 113 -9 112 7 -1
4 -23 17 -50 30 -36 17 -52 31 -57 50 -8 32 34 247 54 278 7 12 18 44 23 70 5
27 18 80 29 119 12 38 21 86 21 107 0 21 12 63 26 95 31 66 29 125 -6 193 -12
23 -18 49 -15 59 3 12 -9 37 -35 72 -42 56 -50 83 -26 92 28 11 23 104 -7 145
-15 19 -81 15 -100 -6z" id="node2" class="node" style="position: relative;"></path>
<path d="M2547 2032 c-22 -24 -22 -66 -1 -102 16 -26 16 -29 -3 -56 -45 -63
-46 -131 -6 -243 16 -47 16 -49 -5 -83 -25 -41 -28 -87 -8 -126 10 -20 14 -67
14 -172 0 -125 -3 -150 -20 -184 -19 -37 -20 -47 -9 -140 7 -67 7 -115 1 -141
-5 -22 -10 -42 -10 -46 0 -3 34 -11 75 -18 102 -17 155 0 82 27 -61 22 -77 45
-77 115 0 68 24 181 44 212 20 31 63 191 74 280 6 44 16 104 23 133 9 42 9 65
1 104 -7 27 -12 70 -12 94 0 53 -17 97 -53 140 -32 37 -34 60 -8 67 10 2 20
16 23 32 6 30 -8 92 -24 113 -16 19 -82 15 -101 -6z" id="node3" class="node" style="position: relative;"></path>
<path d="M2800 2031 c-13 -25 -13 -57 1 -82 8 -16 5 -26 -20 -54 -53 -61 -53
-136 -1 -256 34 -76 36 -95 15 -123 -21 -27 -19 -65 5 -101 17 -26 20 -47 20
-148 0 -100 -3 -123 -19 -145 -32 -46 -33 -68 -10 -188 17 -93 19 -123 11
-152 -6 -19 -9 -38 -7 -42 9 -15 155 -33 178 -23 22 11 22 11 -8 23 -16 6 -45
23 -63 37 l-34 25 4 137 c2 106 7 143 20 166 50 87 89 312 67 388 -11 38 -15
210 -5 225 8 14 -17 75 -50 124 -26 37 -25 58 2 58 15 0 19 25 14 95 -3 47
-11 55 -67 55 -32 0 -45 -5 -53 -19z" id="node4" class="node" style="position: relative;"></path>
<path d="M1573 2008 c-25 -28 -34 -74 -21 -104 8 -17 4 -30 -18 -65 -25 -37
-29 -52 -28 -109 0 -46 7 -80 21 -108 20 -40 20 -41 1 -60 -35 -35 -47 -159
-17 -178 5 -3 9 -29 9 -57 0 -29 11 -82 24 -119 24 -67 24 -112 0 -149 -5 -8
-10 -72 -10 -144 -1 -71 -3 -141 -5 -155 -4 -23 0 -25 73 -39 56 -10 84 -11
100 -4 23 10 22 11 -12 26 -19 9 -46 24 -59 35 -33 26 -30 71 9 168 16 41 30
81 30 88 0 7 8 24 19 37 10 13 22 44 26 69 4 24 13 54 20 65 8 11 19 49 25 85
14 77 29 120 42 120 14 0 48 81 48 115 0 40 -31 104 -64 134 -17 16 -24 31
-21 42 9 27 -10 55 -60 89 -49 33 -53 44 -30 70 16 18 21 60 12 95 -3 11 -6
25 -6 32 -3 43 -75 57 -108 21z" id="node5" class="node" style="position: relative;"></path>
<path d="M751 2004 c-32 -22 -51 -74 -45 -116 5 -30 1 -41 -35 -82 -39 -44
-41 -51 -41 -110 0 -35 5 -78 11 -96 9 -26 9 -34 -2 -41 -10 -6 -15 -35 -17
-98 -4 -85 -2 -91 21 -115 13 -13 28 -41 31 -61 4 -21 19 -61 33 -90 l26 -53
-23 -78 c-21 -73 -22 -83 -10 -155 7 -43 9 -99 5 -127 l-6 -49 75 -13 c52 -9
83 -10 98 -3 l23 10 -25 13 c-36 18 -69 61 -70 90 0 35 51 213 65 225 19 16
35 52 35 77 0 13 9 31 19 40 10 9 22 36 26 60 8 50 31 98 46 98 5 0 21 11 34
25 22 21 25 33 25 92 0 75 -20 130 -69 192 -22 27 -28 44 -24 64 4 22 -2 34
-32 62 -20 19 -43 35 -50 35 -19 0 -29 18 -17 33 28 35 8 154 -29 178 -22 13
-52 11 -78 -7z" id="node6" class="node" style="position: relative;"></path>
<path d="M1161 1995 c-23 -30 -35 -77 -26 -104 3 -12 -3 -37 -17 -63 -18 -36
-22 -57 -20 -123 1 -44 7 -92 13 -107 9 -22 8 -30 -5 -43 -21 -21 -21 -139 -1
-175 8 -14 15 -52 15 -85 0 -37 8 -76 20 -104 25 -54 25 -63 0 -129 -16 -43
-20 -73 -18 -170 1 -64 0 -126 -3 -136 -3 -17 5 -22 61 -33 36 -8 76 -12 89
-11 26 3 42 28 18 28 -15 0 -77 64 -77 78 0 4 13 55 28 113 19 73 37 117 55
139 15 17 27 43 27 57 0 15 7 34 16 44 8 9 20 48 26 86 8 48 20 79 40 106 39
50 52 90 44 139 -8 47 -29 90 -66 136 -23 28 -27 41 -23 72 5 37 3 40 -46 75
-45 33 -66 65 -42 65 27 0 13 134 -17 158 -26 21 -69 14 -91 -13z" id="node7" class="node" style="position: relative;"></path>
<path d="M218 1984 c-34 -18 -60 -76 -49 -107 11 -31 3 -53 -23 -71 -27 -17
-71 -100 -61 -116 4 -6 -1 -33 -10 -60 -12 -35 -13 -55 -6 -67 7 -13 5 -23 -5
-34 -10 -11 -17 -48 -21 -105 -5 -85 -4 -90 21 -119 14 -16 44 -55 66 -85 37
-49 41 -60 37 -100 -3 -25 -11 -64 -18 -87 -11 -37 -11 -52 5 -113 13 -50 17
-88 13 -129 l-6 -58 78 -12 c77 -13 121 -9 121 10 0 5 -8 9 -18 9 -18 0 -62
41 -73 70 -6 15 16 106 31 125 4 6 11 21 15 35 4 13 18 32 31 43 13 10 26 33
29 51 4 18 28 58 56 90 27 32 49 62 49 67 0 5 14 21 31 36 49 44 63 79 62 158
0 81 -18 128 -69 185 -26 29 -34 45 -29 60 11 35 -3 54 -70 99 -39 25 -63 47
-58 53 12 20 21 88 12 94 -5 3 -16 21 -24 40 -8 20 -25 38 -40 44 -34 13 -44
12 -77 -6z" id="node8" class="node" style="position: relative;"></path>
</g>
<g transform="translate(0.000000,220.000000) scale(0.100000,-0.100000)" fill="#ACACAE" stroke="none">

</g>
</svg>